<?xml version="1.0" encoding="UTF-8" standalone="no"?>
<!DOCTYPE svg PUBLIC "-//W3C//DTD SVG 1.1//EN" "http://www.w3.org/Graphics/SVG/1.1/DTD/svg11.dtd">
<svg version="1.1" xmlns="http://www.w3.org/2000/svg" xmlns:xlink="http://www.w3.org/1999/xlink" preserveAspectRatio="xMidYMid meet" viewBox="273.05263157894734 165.10526315789474 116.00000000000006 116.00000000000006" width="80" height="80"><defs><path d="M361.05 222.11C361.05 238.66 347.61 252.11 331.05 252.11C314.5 252.11 301.05 238.66 301.05 222.11C301.05 205.55 314.5 192.11 331.05 192.11C347.61 192.11 361.05 205.55 361.05 222.11Z" id="b5ThfVflhf"></path><linearGradient id="gradientc3xyhc3Nn6" gradientUnits="userSpaceOnUse" x1="331.05" y1="192.11" x2="331.05" y2="252.11"><stop style="stop-color: #ffffff;stop-opacity: 1" offset="0%"></stop><stop style="stop-color: #010000;stop-opacity: 1" offset="100%"></stop></linearGradient><mask id="maska1VGP9nkb5" x="299.05" y="190.11" width="64" height="64" maskUnits="userSpaceOnUse"><rect x="299.05" y="190.11" width="64" height="64" fill="white"></rect><use xlink:href="#b5ThfVflhf" opacity="1" fill="black"></use></mask></defs><g><g><g><filter id="shadow5722780" x="243.05" y="134.11" width="176" height="177" filterUnits="userSpaceOnUse" primitiveUnits="userSpaceOnUse"><feFlood></feFlood><feComposite in2="SourceAlpha" operator="in"></feComposite><feGaussianBlur stdDeviation="4.9"></feGaussianBlur><feOffset dx="0" dy="1" result="afterOffset"></feOffset><feFlood flood-color="#0a2d23" flood-opacity="0.5"></feFlood><feComposite in2="afterOffset" operator="in"></feComposite><feMorphology operator="dilate" radius="4"></feMorphology><feComposite in2="SourceAlpha" operator="out"></feComposite></filter><path d="M361.05 222.11C361.05 238.66 347.61 252.11 331.05 252.11C314.5 252.11 301.05 238.66 301.05 222.11C301.05 205.55 314.5 192.11 331.05 192.11C347.61 192.11 361.05 205.55 361.05 222.11Z" id="c5t03TPJtj" fill="white" fill-opacity="1" filter="url(#shadow5722780)"></path></g><use xlink:href="#b5ThfVflhf" opacity="1" fill="url(#gradientc3xyhc3Nn6)"></use><g mask="url(#maska1VGP9nkb5)"><use xlink:href="#b5ThfVflhf" opacity="1" fill-opacity="0" stroke="#11e0d6" stroke-width="2" stroke-opacity="1"></use></g><g><filter id="shadow15929699" x="257.05" y="148.11" width="149" height="148" filterUnits="userSpaceOnUse" primitiveUnits="userSpaceOnUse"><feFlood></feFlood><feComposite in2="SourceAlpha" operator="out"></feComposite><feGaussianBlur stdDeviation="4.24"></feGaussianBlur><feOffset dx="1" dy="0" result="afterOffset"></feOffset><feFlood flood-color="#07fbe7" flood-opacity="0.8"></feFlood><feComposite in2="afterOffset" operator="in"></feComposite><feMorphology operator="dilate" radius="2"></feMorphology><feComposite in2="SourceAlpha" operator="in"></feComposite></filter><path d="M361.05 222.11C361.05 238.66 347.61 252.11 331.05 252.11C314.5 252.11 301.05 238.66 301.05 222.11C301.05 205.55 314.5 192.11 331.05 192.11C347.61 192.11 361.05 205.55 361.05 222.11Z" id="a7uBkoKgp9" fill="white" fill-opacity="1" filter="url(#shadow15929699)"></path></g></g></g></svg>